HIERARCHY
ROOT Hips
{
  OFFSET 13.6774 106.653 -34.4427
  CHANNELS 6 Xposition Yposition Zposition Zrotation Xrotation Yrotation
  JOINT ToSpine
  {
    OFFSET -2.69724 7.43032 -0.144315
    CHANNELS 3 Zrotation Xrotation Yrotation
    JOINT Spine
    {
      OFFSET -0.0310711 10.7595 1.96963
      CHANNELS 3 Zrotation Xrotation Yrotation
      JOINT Spine1
      {
        OFFSET 19.9056 3.91189 0.764692
        CHANNELS 3 Zrotation Xrotation Yrotation
        JOINT Neck
        {
          OFFSET 25.9749 7.03908 -0.130764
          CHANNELS 3 Zrotation Xrotation Yrotation
          JOINT Head
          {
            OFFSET 9.52751 0.295786 -0.907742
            CHANNELS 3 Zrotation Xrotation Yrotation
            End Site
            {
              OFFSET 16.4037 0.713936 2.7358
            }
          }
        }
        JOINT LeftShoulder
        {
          OFFSET 17.7449 4.33886 11.7777
          CHANNELS 3 Zrotation Xrotation Yrotation
          JOINT LeftArm
          {
            OFFSET 0.911315 1.27913 9.80584
            CHANNELS 3 Zrotation Xrotation Yrotation
            JOINT LeftForeArm
            {
              OFFSET 28.6126 1.18197 -3.53199
              CHANNELS 3 Zrotation Xrotation Yrotation
              JOINT LeftHand
              {
                OFFSET 27.5088 0.0218783 0.327423
                CHANNELS 3 Zrotation Xrotation Yrotation
                End Site
                {
                  OFFSET 18.6038 -0.000155887 0.382096
                }
              }
            }
          }
        }
        JOINT RightShoulder
        {
          OFFSET 17.1009 2.89543 -12.2328
          CHANNELS 3 Zrotation Xrotation Yrotation
          JOINT RightArm
          {
            OFFSET 1.4228 0.178766 -10.211
            CHANNELS 3 Zrotation Xrotation Yrotation
            JOINT RightForeArm
            {
              OFFSET 28.733 1.87905 2.64907
              CHANNELS 3 Zrotation Xrotation Yrotation
              JOINT RightHand
              {
                OFFSET 27.4588 0.290562 -0.101845
                CHANNELS 3 Zrotation Xrotation Yrotation
                End Site
                {
                  OFFSET 17.8396 -0.255518 -0.000602873
                }
              }
            }
          }
        }
      }
    }
  }
  JOINT LeftUpLeg
  {
    OFFSET -5.61296 -2.22332 -10.2353
    CHANNELS 3 Zrotation Xrotation Yrotation
    JOINT LeftLeg
    {
      OFFSET 2.56703 -44.7417 -7.93097
      CHANNELS 3 Zrotation Xrotation Yrotation
      JOINT LeftFoot
      {
        OFFSET 3.16933 -46.5642 -3.96578
        CHANNELS 3 Zrotation Xrotation Yrotation
        JOINT LeftToeBase
        {
          OFFSET 0.346054 -6.02161 12.8035
          CHANNELS 3 Zrotation Xrotation Yrotation
          End Site
          {
            OFFSET 0.134235 -1.35082 5.13018
          }
        }
      }
    }
  }
  JOINT RightUpLeg
  {
    OFFSET -5.7928 -1.72406 10.6446
    CHANNELS 3 Zrotation Xrotation Yrotation
    JOINT RightLeg
    {
      OFFSET -2.57161 -44.7178 -7.85259
      CHANNELS 3 Zrotation Xrotation Yrotation
      JOINT RightFoot
      {
        OFFSET -3.10148 -46.5936 -4.03391
        CHANNELS 3 Zrotation Xrotation Yrotation
        JOINT RightToeBase
        {
          OFFSET -0.0828122 -6.13587 12.8035
          CHANNELS 3 Zrotation Xrotation Yrotation
          End Site
          {
            OFFSET -0.131328 -1.35082 5.13018
          }
        }
      }
    }
  }
}
MOTION
Frames: 8
Frame Time: 0.03333333333333333
0.0000 93.1000 0.0000 67.8250 -46.7693 -3.8952 -71.0039 0.7352 88.0050 73.4382 81.9348 13.9542 -5.3298 31.8833 2.2033 -133.2197 37.3551 150.9596 171.3353 80.8228 -146.1233 1.0999 4.0659 -12.1905 -113.2294 24.7713 -60.8190 15.5559 -5.3454 -104.8482 0.2370 0.5380 2.7238 -2.1569 6.6986 37.9758 -102.0575 -16.8026 72.9740 22.4312 -7.2130 73.5568 -1.2107 -1.5342 -1.4464 -26.9574 -6.6155 80.3549 -5.9808 52.8965 -5.7108 2.9671 -8.1328 -1.2785 -1.1439 3.0499 -2.0506 -67.7685 17.2005 79.8897 4.9563 28.5413 4.0764 -5.6066 -25.1813 1.1072 3.3151 -3.5200 -27.1333 
0.0000 93.1000 0.0000 69.1825 -48.2212 -4.8683 -71.0087 0.4762 88.0051 54.5518 82.0104 28.0169 -3.9213 31.6720 1.5707 -132.0791 36.0770 149.1035 174.4917 79.8321 -150.0548 0.9846 4.8820 -9.8070 -112.0888 25.1646 -63.7732 15.8819 -4.9634 -105.4502 0.3000 0.3099 2.6653 -2.2645 6.5751 37.4241 -95.9901 -23.0091 65.6546 20.2866 -7.1376 72.7758 -1.1696 -1.5099 -1.5589 -30.0635 -5.4183 80.9764 -5.6730 55.9283 -6.6271 4.4614 -11.2582 -1.6688 -1.7245 3.3954 1.1632 -67.7041 15.8494 74.9855 3.6103 37.1133 11.0575 -5.2766 -20.6759 1.3242 2.7659 -17.2719 -17.9150 
0.0000 93.1000 0.0000 72.1813 -47.5236 -3.1915 -71.0083 -0.1191 88.0045 58.1469 80.3505 21.6649 -3.8863 30.4824 1.5755 -129.2955 33.4556 149.2221 174.7839 77.8665 -149.2436 0.5546 4.0397 -9.8756 -108.9387 28.9419 -71.8674 16.3868 -5.4399 -107.0559 -0.1113 -0.1789 2.7320 -2.6588 6.4811 38.4130 -92.4459 -29.6448 57.6645 14.2388 -5.8161 69.6929 -0.7123 -1.1997 -1.5873 -34.4731 -3.2821 82.8043 -5.3351 57.1818 -6.6304 5.8260 -13.8834 -1.7926 -1.7680 2.3018 -0.1590 -60.8556 11.6329 72.0502 1.1881 52.0363 0.1165 -5.4412 -17.7381 1.4229 1.6630 -23.6876 -3.9542 
0.0000 93.1000 0.0000 77.9598 -43.2923 3.0571 -71.0212 -3.7241 88.0050 83.9375 77.0793 -2.4728 -6.0762 28.2286 1.6075 -125.2153 29.6872 149.3445 175.2915 75.5422 -147.4916 0.1259 0.6658 -12.9477 -102.5049 33.5659 -85.8025 15.7103 -5.5671 -106.2050 -0.7059 -3.3039 4.2570 -3.5106 6.4637 39.8777 -94.9883 -32.2958 47.6437 4.1848 -2.6432 64.0336 1.6650 1.9109 0.5779 -38.8446 -1.3163 82.7585 -5.8675 56.5139 -9.7764 5.3986 -13.3632 -0.0967 -1.6487 -0.7604 1.4567 -51.7930 7.0962 71.9982 1.7486 60.5068 -10.9263 -6.2441 -17.0749 -0.2297 3.3704 -24.3821 0.3386 
0.0000 93.1000 0.0000 83.2765 -40.2388 9.6631 -71.0136 -0.5795 88.0149 99.2574 72.1723 -23.3893 -3.3793 23.2048 4.2392 -119.5143 24.5060 146.9202 -168.8432 72.0611 -156.5346 0.5758 -4.6699 -16.3687 -92.4636 35.9656 -103.8435 16.4897 -3.7306 -100.0501 -1.3119 -0.8132 2.6572 -3.0191 6.5263 46.0935 -95.4536 -32.9478 37.1348 -12.0414 4.8661 62.0177 -0.4306 -0.6646 -1.8875 -42.8908 -0.9821 79.2664 -6.4346 56.1748 -11.2653 8.3007 -13.6932 -2.2143 -0.8190 -0.5128 0.7869 -40.3131 5.6774 79.4726 2.9305 59.3736 -6.8736 -2.1846 -17.3434 0.3890 2.5477 -20.2915 -10.4811 
0.0000 93.1000 0.0000 87.1103 -39.5505 15.1105 -71.0165 -1.1597 88.0173 109.7769 67.7709 -35.7687 -2.1076 19.6573 5.2570 -118.3284 20.4968 148.1646 -161.1440 68.3752 -160.5343 -0.0964 -10.3816 -19.1046 -90.0150 32.3740 -117.8162 16.6796 -0.5915 -91.0351 -2.2494 -1.3573 3.1203 -3.3059 6.6115 46.7749 -95.3969 -30.1303 33.2468 -17.3980 7.0120 63.9060 0.1387 -0.0660 -1.8738 -46.9017 2.5342 77.6794 -5.9989 56.1438 -11.1186 7.5351 -12.9757 -1.6049 -1.5534 1.0029 1.8581 -26.9901 3.2232 86.1382 2.0350 53.1623 -4.8144 0.5613 -18.6693 -0.1527 2.3226 -20.6733 -20.3314 
0.0000 93.1000 0.0000 92.9816 -42.9816 20.2600 -71.0107 -0.9402 88.0132 116.9933 63.0810 -44.5598 0.2653 17.3067 5.8986 -121.1817 17.3146 151.3625 -155.9681 64.6682 -163.6082 -0.3753 -14.0254 -17.4917 -90.0739 29.0747 -131.7819 14.7708 2.2635 -75.8790 -2.5282 -1.1262 3.2564 -3.2474 7.3315 44.3856 -91.8314 -28.7776 34.9050 -19.0974 7.9454 65.7904 0.3198 -0.2896 -2.2365 -51.6086 8.5970 80.0610 -6.2913 56.3880 -11.2238 6.0935 -13.2503 -1.6135 -1.4076 -0.6220 2.2732 -15.3367 0.6044 87.4431 0.9258 39.6081 -0.0514 4.0317 -16.2243 -0.2019 1.3167 -23.6595 -18.9472 
0.0000 93.1000 0.0000 103.2813 -46.7166 29.1383 -71.0011 -1.1344 88.0090 125.9962 57.8664 -52.2675 2.0888 16.3272 5.7678 -122.2085 15.6089 157.3231 -156.0371 61.4086 -162.5765 0.3859 -17.1180 -14.9147 -92.1904 24.2967 -141.6781 9.3929 4.7632 -56.9951 -2.1565 -1.2793 3.5060 -2.6666 8.5479 40.1548 -88.1158 -25.8772 41.1290 -18.1877 7.6979 67.0065 0.7217 -0.1390 -1.9657 -58.7018 14.7465 83.9508 -6.0238 54.4328 -12.8542 4.5491 -13.8112 -1.9716 -1.0638 -0.2407 0.7931 -5.9397 -1.5007 86.8627 2.1218 21.7241 8.2752 4.9488 -12.9287 -0.1591 1.4629 -25.0801 -23.9561 
